# xmcd
#
# Track frame offsets: 
#        150
#        12569
#        25329
#        39152
#        48776
#        62924
#        77510
#        87964
#        99589
#        110021
#        122484
#        133039
#        144579
#        156895
#        168087
#        180204
#        190666
#        200389
#        214636
#        223203
#        234733
#        244743
#        257451
#        272838
#        283784
#
# Disc length: 4046 seconds
#
# Revision: 0
# Processed by: cddbd v1.5.2PL0 Copyright (c) Steve Scherf et al.
# Submitted via: ExactAudioCopy v0.99pb5
#
DISCID=5b0fcc19
DTITLE=Various Artist - Juicy Harmonica 3
DYEAR=1900
DGENRE=Blues
TTITLE0=Waggin' Your Tail - King Davis
TTITLE1=Play Boy - Big Boy Williams
TTITLE2=Drinking Blues - Little L. Boyd
TTITLE3=Retreat Brother - Willie Railback
TTITLE4=Remember Way Back - L.C. Green
TTITLE5=Wild Women - Danny Boy and His His Blues Guitar
TTITLE6=Steppin High - Little Luther
TTITLE7=Tree Top Blues - Willie Railback
TTITLE8=The Mix Up - Little Sonny and His Band
TTITLE9=Calendar Hanging On The Wall - Morris Bailey and The Thomas Boys
TTITLE10=On The Suuny Side Of Love - Mr. Calhoun
TTITLE11=P.L. Blues - Papa Lightfoot
TTITLE12=I Love You Baby - Big Boy Williams
TTITLE13=Alice Mae Blues - Sonny Boy Williams
TTITLE14=Hello Friends, Hello Pal - Mr. Calhoun
TTITLE15=Little Schhol Girl - L.C. Green
TTITLE16=Hello Miss Simms - Garland The Great
TTITLE17=Inside My Pocket - Little Sonny and His Band
TTITLE18=Drinking Blues - Little Boy Boyd'
TTITLE19=Some Day You'll Understand - King Davis
TTITLE20=Wine, Women, Whiskey - Papa Lightfoot
TTITLE21=Teel Me Why - Morris Bailey and The Thomas Boys
TTITLE22=Dealing With The Devil - James Cotton
TTITLE23=Polly Put The Kettle On - James Cotton
TTITLE24=Goin' Down Slow - James Cotton
EXTD=
EXTT0=
EXTT1=
EXTT2=
EXTT3=
EXTT4=
EXTT5=
EXTT6=
EXTT7=
EXTT8=
EXTT9=
EXTT10=
EXTT11=
EXTT12=
EXTT13=
EXTT14=
EXTT15=
EXTT16=
EXTT17=
EXTT18=
EXTT19=
EXTT20=
EXTT21=
EXTT22=
EXTT23=
EXTT24=
PLAYORDER=
